<svg width="44" height="46" viewBox="0 0 44 46" fill="none" xmlns="http://www.w3.org/2000/svg">
<path d="M10.5146 0C9.62598 2.98242 8.90332 6.01953 9.27441 8.94336C9.68457 12.1367 11.3252 15.2812 15.6904 18.2891C10.4561 25.5938 7.28223 38.25 9.89941 45.4082C10.9639 40.1348 11.2861 35.8574 15.124 31.2871C22.6924 28.7871 27.2236 27.6152 28.8252 19.0117C29.4307 17.5762 30.0557 17.127 31.9404 16.5996C32.9756 16.3164 34.1084 15.8672 34.0986 14.7246C34.0791 9.91016 31.335 8.04492 28.4736 8.09375C25.6025 8.14258 22.6143 10.1055 22.0869 12.957C21.501 13.1328 20.9248 13.3965 20.3584 13.7383C14.2158 9.4707 12.3408 5.35352 10.5146 0ZM0 8.15234C1.05469 10.8086 2.58203 13.4844 4.80469 15.584C7.17481 17.8203 10.3193 19.4219 14.6553 19.7051C11.2861 17.3418 9.30371 14.793 8.28809 12.166C5.41699 11.1016 2.77344 9.72461 0 8.15234ZM29.3037 10.7207C29.6194 10.7217 29.9218 10.8476 30.145 11.0708C30.3682 11.294 30.4941 11.5964 30.4951 11.9121C30.4941 12.2278 30.3682 12.5302 30.145 12.7534C29.9218 12.9766 29.6194 13.1025 29.3037 13.1035C28.988 13.1025 28.6856 12.9766 28.4624 12.7534C28.2392 12.5302 28.1133 12.2278 28.1123 11.9121C28.1133 11.5964 28.2392 11.294 28.4624 11.0708C28.6856 10.8476 28.988 10.7217 29.3037 10.7207ZM35.1631 16.1992C34.8213 16.6973 34.4697 17.1953 33.5908 17.4883C36.9014 19.959 41.3154 24.959 43.7471 27.7422C42.6533 24.5 38.2979 19.0898 35.1631 16.1992Z" fill="#333333"/>
</svg>
